<svg width="40" height="30" viewBox="0 0 40 30" fill="none" xmlns="http://www.w3.org/2000/svg">
<path d="M7.5 0C5.51088 0 3.60322 0.790177 2.1967 2.1967C0.790177 3.60322 0 5.51088 0 7.5V22.5C0 24.4891 0.790177 26.3968 2.1967 27.8033C3.60322 29.2098 5.51088 30 7.5 30H32.5C34.4891 30 36.3968 29.2098 37.8033 27.8033C39.2098 26.3968 40 24.4891 40 22.5V7.5C40 5.51088 39.2098 3.60322 37.8033 2.1967C36.3968 0.790177 34.4891 0 32.5 0H7.5ZM5 7.5C5 6.83696 5.26339 6.20107 5.73223 5.73223C6.20107 5.26339 6.83696 5 7.5 5H32.5C33.163 5 33.7989 5.26339 34.2678 5.73223C34.7366 6.20107 35 6.83696 35 7.5V8.35L20 14.78L5 8.35V7.5ZM5 13.79L19.015 19.795C19.3262 19.9284 19.6614 19.9972 20 19.9972C20.3386 19.9972 20.6738 19.9284 20.985 19.795L35 13.79V22.5C35 23.163 34.7366 23.7989 34.2678 24.2678C33.7989 24.7366 33.163 25 32.5 25H7.5C6.83696 25 6.20107 24.7366 5.73223 24.2678C5.26339 23.7989 5 23.163 5 22.5V13.79Z" fill="white"/>
</svg>
