<svg width="39" height="39" viewBox="0 0 39 39" fill="none" xmlns="http://www.w3.org/2000/svg">
<path d="M0 35.1162V3.88518C0.0304456 3.81897 0.0559588 3.75059 0.0763312 3.68061C0.333567 2.47155 0.945743 1.4724 1.98461 0.816733C2.56015 0.45493 3.24561 0.266391 3.88145 0H35.1162C35.1688 0.0312436 35.2245 0.0568294 35.2826 0.0763297C37.532 0.552627 39.0007 2.36622 39.0007 4.66374C39.0007 14.5866 39.0007 24.5115 39.0007 34.4384C39.0026 35.0387 38.8857 35.6335 38.6569 36.1884C38.4281 36.7434 38.0918 37.2477 37.6674 37.6722C37.2429 38.0967 36.7387 38.4331 36.1838 38.662C35.6288 38.8909 35.0341 39.0078 34.4338 39.006C24.4705 39.006 14.5072 39.006 4.544 39.006C3.02195 39.006 1.81516 38.3465 0.886977 37.1519C0.42212 36.5413 0.202278 35.8337 0 35.1162ZM19.4713 35.9559H34.1323C35.3635 35.9559 35.9581 35.3658 35.9581 34.1446V4.85915C35.9581 3.6333 35.3665 3.04403 34.1368 3.04403H4.85314C3.64558 3.04403 3.04715 3.63711 3.04715 4.83548C3.04715 14.6098 3.04715 24.3838 3.04715 34.1575C3.04715 35.3574 3.64558 35.9543 4.84856 35.9543L19.4713 35.9559Z" fill="white"/>
<path d="M15.5493 32.194V15.0358H20.7009V17.2135C20.7673 17.1807 20.8047 17.1746 20.8192 17.1524C21.836 15.5976 23.3427 14.8778 25.1296 14.7236C26.4654 14.6076 27.7921 14.7236 29.0378 15.2961C30.556 15.9884 31.3957 17.2402 31.7422 18.8073C31.9743 19.8193 32.1035 20.8522 32.1277 21.8902C32.1758 25.2411 32.1475 28.5927 32.1483 31.9436V32.194H26.8929V31.7841C26.8929 29.169 26.9105 26.554 26.8822 23.9397C26.8834 23.0786 26.8067 22.2192 26.6532 21.3719C26.3296 19.7148 25.1564 19.1095 23.59 19.3034C21.9924 19.5019 21.1322 20.3812 20.8742 22.0162C20.778 22.617 20.7269 23.2243 20.7215 23.8328C20.7055 26.473 20.7147 29.1133 20.7147 31.7535V32.194H15.5493Z" fill="white"/>
<path d="M12.1627 32.2035H6.87598V15.0354H12.1627V32.2035Z" fill="white"/>
<path d="M9.60457 12.6423C8.98596 12.6443 8.38071 12.4625 7.86554 12.1201C7.35037 11.7776 6.94848 11.2899 6.71084 10.7188C6.47321 10.1476 6.41053 9.5188 6.53073 8.912C6.65093 8.30519 6.94861 7.74775 7.38603 7.31033C7.82345 6.87292 8.38092 6.57524 8.98773 6.45504C9.59455 6.33484 10.2234 6.39753 10.7945 6.63516C11.3657 6.87279 11.8534 7.27467 12.1959 7.78982C12.5383 8.30498 12.7201 8.91023 12.7181 9.52882C12.7192 9.938 12.6394 10.3434 12.4834 10.7216C12.3273 11.0999 12.098 11.4435 11.8087 11.7329C11.5193 12.0222 11.1756 12.2515 10.7974 12.4076C10.4191 12.5636 10.0138 12.6434 9.60457 12.6423Z" fill="white"/>
</svg>
