<svg width="129" height="25" viewBox="0 0 129 25" fill="none" xmlns="http://www.w3.org/2000/svg">
<g id="Group 101">
<g id="Group 115">
<path id="Vector" d="M6.94825 0H17.0112C20.8447 0 23.9595 3.11473 23.9595 6.94825V17.0112C23.9595 18.854 23.2274 20.6213 21.9244 21.9244C20.6213 23.2274 18.854 23.9595 17.0112 23.9595H6.94825C3.11473 23.9595 0 20.8447 0 17.0112V6.94825C0 5.10546 0.732045 3.33814 2.03509 2.03509C3.33814 0.732045 5.10546 0 6.94825 0ZM6.70865 2.39595C5.56485 2.39595 4.4679 2.85032 3.65911 3.65911C2.85032 4.4679 2.39595 5.56485 2.39595 6.70865V17.2508C2.39595 19.6348 4.32468 21.5635 6.70865 21.5635H17.2508C18.3946 21.5635 19.4916 21.1091 20.3004 20.3004C21.1091 19.4916 21.5635 18.3946 21.5635 17.2508V6.70865C21.5635 4.32468 19.6348 2.39595 17.2508 2.39595H6.70865ZM18.2691 4.19291C18.6662 4.19291 19.0471 4.35068 19.328 4.6315C19.6088 4.91233 19.7666 5.29322 19.7666 5.69037C19.7666 6.08753 19.6088 6.46841 19.328 6.74924C19.0471 7.03007 18.6662 7.18784 18.2691 7.18784C17.8719 7.18784 17.4911 7.03007 17.2102 6.74924C16.9294 6.46841 16.7716 6.08753 16.7716 5.69037C16.7716 5.29322 16.9294 4.91233 17.2102 4.6315C17.4911 4.35068 17.8719 4.19291 18.2691 4.19291ZM11.9797 5.98987C13.5683 5.98987 15.0919 6.62094 16.2152 7.74426C17.3385 8.86758 17.9696 10.3911 17.9696 11.9797C17.9696 13.5683 17.3385 15.0919 16.2152 16.2152C15.0919 17.3385 13.5683 17.9696 11.9797 17.9696C10.3911 17.9696 8.86758 17.3385 7.74426 16.2152C6.62094 15.0919 5.98987 13.5683 5.98987 11.9797C5.98987 10.3911 6.62094 8.86758 7.74426 7.74426C8.86758 6.62094 10.3911 5.98987 11.9797 5.98987ZM11.9797 8.38581C11.0266 8.38581 10.1124 8.76446 9.43845 9.43845C8.76446 10.1124 8.38581 11.0266 8.38581 11.9797C8.38581 12.9329 8.76446 13.847 9.43845 14.521C10.1124 15.195 11.0266 15.5737 11.9797 15.5737C12.9329 15.5737 13.847 15.195 14.521 14.521C15.195 13.847 15.5737 12.9329 15.5737 11.9797C15.5737 11.0266 15.195 10.1124 14.521 9.43845C13.847 8.76446 12.9329 8.38581 11.9797 8.38581Z" fill="#7B7B7B"/>
<g id="Group 100">
<g id="Group">
<path id="Vector_2" fill-rule="evenodd" clip-rule="evenodd" d="M54.6636 23.9598C54.5266 23.9594 54.3911 23.9321 54.2647 23.8793C54.1383 23.8265 54.0235 23.7494 53.9269 23.6523C53.8304 23.5551 53.7539 23.4399 53.7018 23.3132C53.6497 23.1866 53.6232 23.0509 53.6235 22.9139V3.32817C53.6235 2.75027 54.0891 2.28223 54.6636 2.28223H74.2616C74.8356 2.28223 75.3011 2.75027 75.3011 3.32817V22.9139C75.3015 23.0509 75.2749 23.1866 75.2229 23.3132C75.1708 23.4399 75.0943 23.5551 74.9978 23.6523C74.9012 23.7494 74.7864 23.8265 74.66 23.8793C74.5336 23.9321 74.3981 23.9594 74.2611 23.9598H54.6636Z" stroke="#7B7B7B" stroke-width="2" stroke-linecap="round" stroke-linejoin="round"/>
<path id="Vector_3" fill-rule="evenodd" clip-rule="evenodd" d="M71.6859 10.1094H69.2871C68.9678 10.1095 68.6616 10.2364 68.4358 10.4622C68.2101 10.688 68.0832 10.9941 68.083 11.3134V13.7226H71.6859L71.1583 17.3349H68.083V23.9599H64.121V17.3349H60.8496V13.7231H64.0786L64.121 10.2946L64.1091 9.06587C64.1052 8.65081 64.1835 8.23907 64.3396 7.85445C64.4956 7.46983 64.7264 7.11995 65.0185 6.82502C65.3106 6.5301 65.6582 6.29597 66.0413 6.13618C66.4244 5.97639 66.8353 5.89409 67.2504 5.89404H71.6859V10.1094Z" fill="#7B7B7B"/>
</g>
</g>
<g id="Group 114">
<path id="Vector_4" d="M104.928 22.5442V3.26765C104.947 3.22678 104.962 3.18458 104.975 3.14139C105.134 2.39513 105.512 1.77843 106.153 1.37374C106.508 1.15042 106.931 1.03405 107.324 0.869629H126.602C126.635 0.888913 126.669 0.904705 126.705 0.916741C128.093 1.21072 129 2.33011 129 3.7482C129 9.87281 129 15.9987 129 22.1258C129.001 22.4963 128.929 22.8634 128.788 23.206C128.647 23.5485 128.439 23.8597 128.177 24.1218C127.915 24.3838 127.604 24.5914 127.261 24.7327C126.919 24.874 126.552 24.9461 126.181 24.945C120.032 24.945 113.882 24.945 107.733 24.945C106.793 24.945 106.048 24.538 105.475 23.8007C105.188 23.4238 105.053 22.987 104.928 22.5442ZM116.946 23.0624H125.995C126.755 23.0624 127.122 22.6982 127.122 21.9444V3.86881C127.122 3.11218 126.757 2.74847 125.998 2.74847H107.923C107.178 2.74847 106.809 3.11453 106.809 3.8542C106.809 9.8871 106.809 15.9198 106.809 21.9524C106.809 22.693 107.178 23.0615 107.92 23.0615L116.946 23.0624Z" fill="#7B7B7B"/>
<path id="Vector_5" d="M114.525 20.7407V10.1503H117.705V11.4944C117.746 11.4742 117.769 11.4704 117.778 11.4567C118.406 10.4971 119.336 10.0528 120.438 9.95763C121.263 9.88601 122.082 9.95763 122.851 10.311C123.788 10.7383 124.306 11.5109 124.52 12.4781C124.663 13.1028 124.743 13.7403 124.758 14.381C124.788 16.4492 124.77 18.518 124.771 20.5862V20.7407H121.527V20.4877C121.527 18.8737 121.538 17.2596 121.52 15.646C121.521 15.1145 121.474 14.5841 121.379 14.0611C121.179 13.0383 120.455 12.6647 119.488 12.7844C118.502 12.9069 117.971 13.4496 117.812 14.4587C117.753 14.8296 117.721 15.2044 117.718 15.58C117.708 17.2096 117.713 18.8393 117.713 20.4689V20.7407H114.525Z" fill="#7B7B7B"/>
<path id="Vector_6" d="M112.435 20.7459H109.172V10.1494H112.435V20.7459Z" fill="#7B7B7B"/>
<path id="Vector_7" d="M110.856 8.67257C110.474 8.67378 110.101 8.56159 109.783 8.35022C109.465 8.13885 109.217 7.83783 109.07 7.48531C108.923 7.1328 108.885 6.74466 108.959 6.37013C109.033 5.9956 109.217 5.65153 109.487 5.38155C109.757 5.11156 110.101 4.92783 110.475 4.85364C110.85 4.77945 111.238 4.81814 111.591 4.96481C111.943 5.11149 112.244 5.35953 112.456 5.6775C112.667 5.99547 112.779 6.36904 112.778 6.75085C112.779 7.0034 112.729 7.2536 112.633 7.48707C112.537 7.72053 112.395 7.93265 112.217 8.11124C112.038 8.28982 111.826 8.43135 111.592 8.52768C111.359 8.62401 111.109 8.67325 110.856 8.67257Z" fill="#7B7B7B"/>
</g>
</g>
</g>
</svg>
