<svg width="28" height="28" viewBox="0 0 28 28" fill="none" xmlns="http://www.w3.org/2000/svg">
<g id="Group 99">
<path id="Vector" d="M23.1054 3.9515C21.8593 2.69384 20.3753 1.69675 18.74 1.01835C17.1047 0.339956 15.3507 -0.0061909 13.5802 8.38028e-05C6.16156 8.38028e-05 0.115519 6.04442 0.108723 13.4648C0.108723 15.8414 0.730485 18.1535 1.90436 20.2005L0 27.1809L7.14177 25.3088C9.11748 26.384 11.3309 26.9476 13.5802 26.9482H13.587C21.0074 26.9482 27.0517 20.9039 27.0585 13.4767C27.0602 11.7066 26.7117 9.95369 26.0329 8.31891C25.3542 6.68414 24.3603 5.19983 23.1054 3.9515ZM13.5802 24.6684C11.5739 24.6691 9.60452 24.1292 7.87905 23.1055L7.47133 22.8609L3.23452 23.9719L4.36592 19.8387L4.10091 19.4123C2.97937 17.6291 2.38622 15.5646 2.39022 13.458C2.39022 7.29814 7.41358 2.27308 13.587 2.27308C15.0577 2.27044 16.5144 2.55895 17.8731 3.12196C19.2318 3.68497 20.4656 4.51136 21.5034 5.55347C22.5449 6.59152 23.3705 7.82549 23.9326 9.1842C24.4948 10.5429 24.7823 11.9995 24.7787 13.4699C24.7719 19.6518 19.7486 24.6684 13.5802 24.6684ZM19.7214 16.2865C19.3867 16.1183 17.7338 15.3046 17.4229 15.1891C17.1137 15.0787 16.8878 15.0209 16.667 15.3573C16.441 15.6919 15.7955 16.4547 15.6018 16.6738C15.4081 16.8998 15.2077 16.9253 14.8713 16.7588C14.5367 16.5889 13.4511 16.2355 12.1668 15.0855C11.1645 14.1936 10.4935 13.0894 10.293 12.7547C10.0994 12.4183 10.2744 12.2383 10.4425 12.0701C10.5903 11.9206 10.7772 11.676 10.9454 11.4823C11.1153 11.2886 11.1713 11.1459 11.2817 10.9217C11.3922 10.694 11.3395 10.5004 11.2563 10.3322C11.1713 10.164 10.5003 8.50429 10.2166 7.83496C9.94479 7.17413 9.66789 7.26586 9.46063 7.25737C9.26697 7.24548 9.04103 7.24548 8.81509 7.24548C8.64447 7.24972 8.47656 7.28918 8.32191 7.36139C8.16727 7.4336 8.02921 7.53699 7.91642 7.66508C7.60724 8.00144 6.74255 8.81517 6.74255 10.4749C6.74255 12.1346 7.9487 13.7298 8.11858 13.9557C8.28506 14.1817 10.4867 17.5776 13.8656 19.0386C14.6641 19.3868 15.2926 19.5924 15.7836 19.7487C16.5905 20.0069 17.3193 19.9678 17.9003 19.8846C18.5458 19.786 19.8896 19.0691 20.1733 18.2826C20.4519 17.4944 20.4519 16.8216 20.3669 16.6806C20.2837 16.5379 20.0578 16.4547 19.7214 16.2865Z" fill="#7B7B7B"/>
</g>
</svg>
