<svg width="140" height="140" viewBox="0 0 140 140" fill="none" xmlns="http://www.w3.org/2000/svg">
<g clip-path="url(#clip0_852_62)">
<path d="M70 140C108.66 140 140 108.66 140 70C140 31.3401 108.66 0 70 0C31.3401 0 0 31.3401 0 70C0 108.66 31.3401 140 70 140Z" fill="#133B6F"/>
<path d="M109.194 95.6298C108.125 93.4311 107.089 91.2198 106.038 89.0098C104.214 85.1638 101.342 78.8272 99.6876 74.9068C98.2368 71.4677 96.6527 68.089 95.2566 64.626C94.6097 63.0236 93.6008 61.5629 92.7393 60.049C91.9136 58.5679 91.0053 57.1344 90.0186 55.7553C88.6744 53.9144 87.5519 53.9635 86.1698 55.8339C85.2816 57.0364 84.6264 58.4101 83.8266 59.6799C82.4852 61.8001 81.075 63.8809 80.0647 66.1905C79.8164 66.7518 79.5372 66.8486 79.126 66.3715C78.865 66.0712 78.5227 65.7962 78.3838 65.444C77.5742 63.3968 76.7112 61.3749 75.9142 59.3179C74.5462 55.796 72.8385 52.4425 71.201 49.0511C70.5738 47.749 69.993 46.771 69.2605 45.518C68.7835 44.7014 68.7104 44.4179 67.7802 43.4301C67.6412 43.2765 67.5176 43.1097 67.4112 42.932C66.3055 41.063 65.2096 39.1884 64.0984 37.3194C63.857 36.9153 63.5638 36.5407 63.2915 36.1548C61.8267 34.0754 60.119 34.1245 58.8015 36.3232C57.0321 39.2614 55.469 42.3202 53.68 45.2416C52.065 47.8795 50.5566 50.5819 49.072 53.2956C47.2171 56.6856 45.2836 60.0307 43.3879 63.3983C40.794 68.0286 38.2071 72.6637 35.6272 77.3034C33.9181 80.3903 32.2344 83.4913 30.5758 86.6062C29.5712 88.4794 28.5848 90.3639 27.6517 92.2749C26.6358 94.3544 27.8495 96.236 30.0469 95.9891C33.5547 95.5948 37.071 95.5835 40.5886 95.5527C42.6653 95.5344 42.6653 95.5414 41.8094 97.3305C41.794 97.3627 41.7912 97.402 41.7743 97.4329C40.8244 99.2135 39.8689 100.991 38.9232 102.775C38.0602 104.399 37.1903 106.02 36.3582 107.66C35.9709 108.427 35.7492 108.652 36.2586 109.344L36.7763 109.604C37.8806 110.157 39.1057 110.426 40.3403 110.385C47.363 110.144 54.8881 109.708 61.8084 109.559C68.0538 109.419 74.3034 109.409 80.5502 109.323C81.973 109.303 82.2873 108.746 81.6727 107.479C81.2967 106.703 80.9445 105.918 80.581 105.136C79.8304 103.52 79.1148 101.886 78.3164 100.295C77.9165 99.4997 78.3164 98.8192 79.2074 98.7967C82.3658 98.7196 85.5215 98.7547 88.6828 98.6368C93.9797 98.4389 99.2836 98.4361 104.585 98.3562L109.271 98.2818L109.278 98.2649C109.603 97.4931 109.612 96.6244 109.303 95.8459C109.259 95.7758 109.225 95.7 109.194 95.6298ZM96.4899 73.3592C96.049 74.0258 95.5309 74.6381 94.9465 75.1832C93.9965 76.0925 93.4718 76.0574 92.6902 74.9237C91.7852 73.6117 90.8661 72.3012 90.0944 70.9107C89.404 69.6619 88.9718 70.7241 88.3011 71.3148C87.5455 72.0066 86.8769 72.7878 86.3101 73.6412C85.6576 74.5911 85.1595 74.7314 84.6123 73.8881C84.5126 73.7366 84.413 73.5851 84.3078 73.4363C83.8153 72.7348 83.3256 72.5397 82.7938 73.4139C81.8116 75.0387 80.0535 75.7459 78.6166 76.8235C77.8575 77.3848 77.4745 76.9638 77.5068 75.5481C77.3581 74.7062 77.96 74.0285 78.3487 73.3255C80.612 69.2451 82.9383 65.1999 85.2493 61.1462C85.9831 59.8595 86.731 58.5813 87.4789 57.3016C88.0079 56.3952 88.3657 56.3783 88.8821 57.2413C91.2183 61.1546 93.678 65.0006 95.4768 69.2087C95.9048 70.2077 96.2696 71.2334 96.6751 72.2423C96.8365 72.6548 96.7228 73 96.4899 73.3592Z" fill="#7FB5D6"/>
<path d="M50.5496 54.3227C50.5496 54.3227 50.6198 64.0549 51.6847 64.1447C52.7497 64.2345 56.9493 56.1327 58.7005 56.6056C60.4516 57.0784 63.2046 63.1316 64.8561 63.6816C66.5076 64.2317 68.0244 60.3029 68.7077 59.2786C69.8078 57.6285 70.9092 60.38 72.5593 59.8286C74.2094 59.2772 69.8078 50.4738 69.8078 50.4738L62.3009 36.4775C62.3009 36.4775 61.2598 35.6454 60.5821 36.1772C59.9044 36.709 50.9256 52.6684 50.7376 53.4948L50.5496 54.3199" fill="#F8F8F8"/>
<path d="M70.4714 85.3433C69.5861 82.2859 67.8559 79.5638 66.29 76.8206L61.1503 67.8125C60.996 67.5445 60.5288 67.4308 60.3155 67.7058C55.8451 73.4278 52.3666 79.8893 50.3293 86.8714C49.8143 87.7638 50.0655 89.2342 50.4472 90.0986C51.0267 91.4161 52.3877 90.7132 53.3629 90.1968C54.1823 89.7604 54.8222 89.0182 55.4999 88.3966L58.5335 85.6071C58.9839 85.1862 59.4203 84.733 59.9156 84.3752C60.1962 84.1703 60.6747 83.9542 61.0311 84.1549C61.2373 84.2699 61.3117 84.7723 61.372 84.9968C61.7369 86.3326 62.054 87.6838 62.3949 89.0252C62.5156 89.5008 63.1147 89.5065 63.3659 89.1515C64.3743 87.7219 65.2329 86.1924 65.9281 84.587L69.8176 85.9902C70.2048 86.1361 70.5781 85.711 70.4714 85.3433Z" fill="white"/>
<path d="M82.7882 73.4083C83.3186 72.5341 83.8097 72.7277 84.3022 73.4307C84.4074 73.5794 84.507 73.731 84.6067 73.8825C85.1539 74.7244 85.652 74.5841 86.3045 73.6356C86.8714 72.7822 87.5399 72.001 88.2955 71.3092C88.9606 70.7184 89.3984 69.6563 90.0888 70.9051C90.716 72.0374 91.4428 73.1164 92.1795 74.187C93.6579 73.3718 95.0334 72.3826 96.2767 71.2404C96.0157 70.5599 95.7575 69.878 95.4699 69.2087C93.671 64.9992 91.2113 61.1546 88.8751 57.2412C88.3601 56.3783 88.0023 56.3994 87.4719 57.3016C86.7241 58.5813 85.9762 59.8595 85.2423 61.1462C82.9314 65.1999 80.6049 69.2451 78.3417 73.3255C77.953 74.027 77.351 74.7118 77.4998 75.548C77.4907 75.8045 77.503 76.0612 77.5363 76.3156C78.0199 76.4091 78.5058 76.4868 78.9941 76.5485C80.3495 75.6098 81.8888 74.8914 82.7882 73.4083Z" fill="#FF5C00"/>
<path d="M67.7802 43.4301C68.7105 44.4123 68.7835 44.7013 69.2606 45.518C69.993 46.7724 70.5739 47.7489 71.2011 49.0511C72.8385 52.4453 74.5462 55.796 75.9143 59.3179C76.7113 61.3679 77.5742 63.3968 78.3838 65.444C78.5241 65.7962 78.8651 66.0712 79.1261 66.3715C79.5372 66.8485 79.8164 66.7587 80.0648 66.1905C81.075 63.8809 82.4852 61.8 83.8266 59.6799C84.6292 58.417 85.2816 57.0363 86.1698 55.8338C87.5519 53.9635 88.6745 53.9144 90.0187 55.7553C91.0054 57.1343 91.9137 58.5678 92.7393 60.0489C93.6008 61.5629 94.6098 63.0236 95.2566 64.6259C95.982 66.4262 96.7593 68.2026 97.5409 69.9789C100.35 66.9637 102.272 63.2312 103.095 59.193C104.515 52.0776 102.142 44.0082 96.8814 39.549C91.7894 35.2273 84.7316 34.638 78.6139 36.542C74.4552 37.8395 70.7124 40.2111 67.7634 43.4174L67.7802 43.4301Z" fill="#FF5C00"/>
<path d="M77.5012 75.5424C77.3525 74.7005 77.9544 74.0228 78.3431 73.3198C80.6064 69.2395 82.9327 65.1942 85.2437 61.1405C85.9775 59.8539 86.7254 58.5756 87.4733 57.2959C88.0023 56.3895 88.3601 56.3727 88.8765 57.2356C91.2127 61.149 93.6724 64.995 95.4712 69.203C95.8922 70.202 96.2626 71.2277 96.6681 72.2366C96.8365 72.6575 96.7229 72.9999 96.4899 73.3591C96.049 74.0257 95.531 74.638 94.9465 75.1832C93.9966 76.0924 93.4718 76.0574 92.6902 74.9236C91.7852 73.6117 90.8661 72.3011 90.0944 70.9106C89.5654 69.9537 89.1837 70.3494 88.7361 70.8601C87.8451 71.862 86.9485 72.8624 86.1122 73.9091C85.551 74.6107 85.102 74.6444 84.6123 73.8881C84.5127 73.7366 84.413 73.585 84.3078 73.4363C83.8153 72.7347 83.3256 72.5397 82.7938 73.4138C81.8116 75.0387 80.0535 75.7459 78.6167 76.8235C77.8519 77.3861 77.4689 76.9554 77.5012 75.5424Z" fill="#F8F8F8"/>
</g>
<defs>
<clipPath id="clip0_852_62">
<rect width="140" height="140" fill="white"/>
</clipPath>
</defs>
</svg>
