<svg width="140" height="140" viewBox="0 0 140 140" fill="none" xmlns="http://www.w3.org/2000/svg">
<g clip-path="url(#clip0_852_75)">
<path d="M69.9993 139.999C108.659 139.999 139.999 108.659 139.999 69.9993C139.999 31.3398 108.659 0 69.9993 0C31.3398 0 0 31.3398 0 69.9993C0 108.659 31.3398 139.999 69.9993 139.999Z" fill="#89B3D2"/>
<path d="M112.531 43.2802C112.753 42.2186 112.938 41.3915 113.093 40.5574C113.834 36.6467 114.387 36.3448 118.329 37.068C120.656 37.4893 121.406 38.753 121.026 40.9534C120.167 45.9482 119.341 50.9471 118.489 55.9433C118.079 58.3599 116.623 59.6868 114.23 60.191C109.094 61.2708 104.111 60.4367 99.2052 58.9974C96.9079 58.3234 95.3998 53.0464 96.87 51.2279C97.8122 50.0625 99.0578 50.6663 100.197 50.8278C104.595 51.4596 105.461 50.4753 103.715 46.3484C98.8991 34.9617 89.9684 28.4392 78.0945 26.2767C63.2465 23.5723 49.6833 26.5464 38.7081 37.5679C32.3569 43.9472 29.696 52.1421 28.2875 60.8158C28.025 62.4335 27.7399 64.0104 25.9945 64.8136C22.7087 66.3259 20.0084 64.5931 19.8918 60.8018C19.5773 50.6438 23.1496 41.8212 29.102 33.7625C42.2467 15.9699 60.0309 11.857 80.6459 16.3505C88.8394 18.1352 96.6201 20.9689 102.747 27.1361C106.424 30.8404 108.436 35.4686 110.415 40.1516C110.853 41.1837 110.828 42.5317 112.531 43.2802Z" fill="#FA6802"/>
<path d="M69.5317 125.587C62.2299 125.35 53.1335 123.517 44.5637 119.26C37.2099 115.609 31.5566 110.47 28.9602 102.443C28.6211 101.422 28.1872 100.435 27.6641 99.4945C27.2204 98.6828 27.1095 97.3011 25.9791 97.3362C24.5271 97.3811 24.7617 98.8991 24.53 99.8638C23.5555 103.905 23.2058 104.113 19.7978 103.234C18.0931 102.796 17.4415 101.884 17.648 100.237C18.3192 94.8901 19.1926 89.5808 20.4325 84.3277C20.8776 82.4433 22.0782 81.6682 23.745 81.2567C28.3788 80.1151 32.972 80.5462 37.5061 81.7412C40.4704 82.5219 41.9631 85.5325 40.924 88.3199C40.3427 89.8799 38.9918 89.4544 37.8881 89.4432C31.6815 89.3913 31.5692 89.505 34.0968 95.2131C39.2081 106.753 48.56 112.726 60.5266 115.321C77.9766 119.104 96.2185 111.656 104.868 97.12C107.411 92.8558 109.159 88.1656 110.027 83.2774C110.543 80.3833 112.434 79.9073 114.705 80.0182C117.276 80.1432 117.624 81.9953 117.654 84.1662C117.683 86.5688 117.555 88.9644 116.772 91.1956C110.134 110.114 95.4294 125.639 69.5317 125.587Z" fill="#1E3B6C"/>
<path d="M77.2098 86.6615C77.0343 87.153 76.8082 87.6332 76.6973 88.1387C76.5653 88.7481 76.6285 89.6117 75.7284 89.4249C74.8283 89.2382 73.5814 89.4853 73.3638 88.0208C73.2379 87.0696 73.0346 86.1304 72.7558 85.2124C72.6041 84.7434 72.1617 84.3698 71.85 83.9486L71.4428 84.0553C71.7166 90.0639 71.9919 96.0738 72.2755 102.29C70.4501 102.29 68.8254 102.306 67.2007 102.29C66.2487 102.278 65.9524 101.684 66.1139 100.84C67.0813 95.7846 66.5127 90.6761 66.5647 85.5915C66.5647 85.1211 66.4242 84.6479 66.3498 84.1761L65.885 84.0356C65.3626 85.086 64.7532 86.1026 64.3404 87.1937C63.7983 88.6203 63.1384 90.0245 61.6949 90.5722C60.073 91.1858 58.2138 91.0608 56.7113 92.2053C56.4305 92.4159 55.3746 92.1477 55.1752 91.8079C54.5433 90.7224 53.8426 91.1058 53.3876 91.704C52.6967 92.6153 51.8135 92.8273 50.7969 93.0239C49.814 93.2177 49.5247 92.8442 49.6441 91.9904C49.8182 90.7365 49.168 90.6452 48.2216 90.9008C48.0994 90.9345 47.9744 91.0187 47.8607 91.0033C47.3412 90.9373 46.8258 90.8446 46.3091 90.7603C46.5801 90.1902 46.8174 89.6005 47.1389 89.0613C47.2485 88.8773 47.5602 88.7804 47.7961 88.7088C51.4302 87.5855 54.2554 85.1534 57.1677 82.8645C59.6822 80.8846 62.1756 78.8766 64.6479 76.8405C65.3904 76.2224 66.0607 75.5224 66.646 74.7539C67.1502 74.0953 66.7865 73.4803 66.0297 73.6446C65.1871 73.8271 64.36 74.3059 63.6242 74.8002C63.2029 75.0811 62.9797 75.6722 62.6413 76.0963C61.7229 77.2197 60.7877 77.523 59.5338 76.8152C58.145 76.0317 57.0554 76.2536 56.0668 77.398C55.2243 78.3809 54.4295 78.3514 53.323 77.6507C52.5451 77.1593 51.447 77.1902 50.5146 76.9304C49.9979 76.79 49.5134 76.5274 49.0136 76.321C49.3744 75.9095 49.6665 75.2411 50.1032 75.1274C55.1148 73.8271 58.9272 70.4935 63.0064 67.6177C64.7701 66.375 67.4226 62.4517 67.6192 60.6515C65.7305 61.8465 63.9683 62.9572 62.213 64.0721C61.5207 64.5102 60.851 64.8529 59.9832 64.4218C59.7459 64.3038 59.2811 64.5257 58.9736 64.6886C58.3796 65.0017 57.8501 65.4735 57.2351 65.7024C56.8911 65.8288 56.3702 65.687 56.0079 65.5086C55.3914 65.2025 54.8354 64.7728 53.9535 64.1999C54.1642 63.8798 54.4296 63.0625 54.9926 62.6876C57.2267 61.1949 59.59 59.8961 61.8255 58.4048C62.6855 57.8133 63.4223 57.0603 63.9949 56.1876C64.7504 55.0488 65.277 53.7569 65.6968 52.3752C65.1057 52.7852 64.5285 53.2177 63.9163 53.594C63.6355 53.7639 63.2718 53.9395 62.9713 53.9029C61.7426 53.7541 60.622 53.9029 59.5843 54.6472C59.3835 54.7876 58.857 54.7314 58.6421 54.5615C57.8459 53.931 57.1172 53.2149 56.168 52.3541C61.8957 48.3227 66.7346 43.3237 69.88 36.8195L70.3405 36.9234C70.6031 37.5496 71.0089 38.1534 71.1058 38.8036C71.9652 44.6114 76.2873 47.7441 80.5013 50.9078C81.466 51.6323 82.8155 51.843 84.2604 52.3934C83.613 52.7052 83.1174 53.0618 82.5753 53.1798C81.2779 53.4606 79.9593 53.6432 78.6436 53.8313C78.1086 53.9086 77.5623 53.9001 76.9332 53.9366C76.8897 52.7066 76.2213 52.5647 75.3114 52.9537C74.5376 53.2837 74.188 52.9354 73.8356 52.2699C73.594 51.8051 73.1335 51.454 72.7684 51.051L72.3906 51.235C72.4131 51.5706 72.3317 51.9623 72.4749 52.2319C73.0871 53.3792 73.5604 54.7047 74.4633 55.5683C76.4923 57.5075 78.6478 59.3302 81.4141 60.2598C83.2283 60.8692 84.9681 61.7033 86.7219 62.4306C85.7614 63.9668 82.8224 63.9753 80.1783 62.1652C79.9803 62.7424 79.7964 63.2535 79.6321 63.7717C79.4565 64.3249 79.3021 64.8852 79.1224 65.4946C77.9597 65.3247 77.0161 65.0733 76.4544 63.9977C75.9896 63.1243 75.244 62.6694 74.1712 62.7339C73.7387 62.7564 73.2641 62.4714 72.8526 62.2467C72.3668 61.9813 71.9273 61.6302 71.4681 61.3171L71.0469 61.5867C71.4204 62.6146 71.645 63.7309 72.1954 64.6521C73.7499 67.2541 75.7327 69.3632 78.6239 70.662C82.2594 72.2979 85.7572 74.2414 89.2846 76.1075C90.0021 76.4881 90.5876 77.1171 91.4653 77.815C89.5359 78.1408 87.9436 79.1575 86.3737 77.5974C86.1139 77.339 85.5087 77.3825 85.0607 77.3713C84.5187 77.3559 83.9472 77.5511 83.4347 77.4415C82.1891 77.1789 80.9886 76.7815 80.1011 78.1885C80.0337 78.2953 79.2108 78.1169 78.944 77.8586C78.6407 77.5637 78.6309 76.9894 78.3824 76.613C78.0622 76.1342 77.6508 75.383 77.2408 75.3577C75.7284 75.2636 74.6163 74.5278 73.5028 73.6375C73.2219 73.4115 72.6982 73.4185 72.2881 73.4255C70.7168 73.4578 70.4248 73.9872 71.0932 75.3773C71.7266 76.7129 72.7096 77.8522 73.9381 78.6744C75.6652 79.8624 77.2113 81.3283 78.9932 82.4194C80.7751 83.5105 82.8028 84.1831 84.6226 85.218C87.7596 87.0013 90.6916 89.1961 94.4225 89.6665C94.5994 89.6889 94.7567 89.8673 95.0403 90.047C94.8002 90.1762 94.6725 90.3054 94.5433 90.3068C92.1562 90.3293 89.7578 90.3278 87.365 90.3517C86.5843 90.3587 85.6505 90.2689 86.2768 91.6043C85.1282 91.7686 84.4288 91.395 83.9346 90.5258C83.7295 90.165 83.4094 89.8687 83.1426 89.5429C82.8744 89.9291 82.6062 90.3138 82.3394 90.7014C82.2706 90.8039 82.2088 90.9134 82.1596 90.9949C79.6756 90.5736 78.3108 88.9531 77.7168 86.5014L77.2098 86.6615Z" fill="#FEFEFE"/>
</g>
<defs>
<clipPath id="clip0_852_75">
<rect width="140" height="140" fill="white"/>
</clipPath>
</defs>
</svg>
