<svg width="140" height="140" viewBox="0 0 140 140" fill="none" xmlns="http://www.w3.org/2000/svg">
<g clip-path="url(#clip0_852_36)">
<path d="M70.0007 140.001C108.661 140.001 140.001 108.661 140.001 70.0007C140.001 31.3404 108.661 0 70.0007 0C31.3404 0 0 31.3404 0 70.0007C0 108.661 31.3404 140.001 70.0007 140.001Z" fill="#133B6F"/>
<path d="M51.2761 40.9281C51.4738 40.3826 51.9673 40.1709 52.3866 39.9465C53.7888 39.1795 55.1909 38.3831 56.6871 37.8433C58.9342 37.0547 61.2637 36.5241 63.6306 36.2616C67.1361 35.8494 70.5854 36.1494 74.0291 36.7874C74.7486 36.9269 75.453 37.1353 76.1324 37.41C76.4871 37.5502 76.8026 37.3175 77.1251 37.4507C77.3607 37.5572 77.5907 37.6736 77.8262 37.7676C79.1513 38.2892 80.5282 38.6692 81.7663 39.4305C82.2725 39.7432 82.7801 40.0671 83.376 40.1653C83.4043 40.3048 83.4626 40.4365 83.5468 40.5513C83.6311 40.6661 83.7393 40.7611 83.864 40.8299C85.527 41.9278 87.1198 43.1281 88.5318 44.5793C89.5504 45.6165 90.4879 46.7303 91.3362 47.9109C91.8886 48.6891 92.4579 49.4743 92.7215 50.4348C92.3233 50.5287 92.0527 50.2217 91.74 50.0702C90.3799 49.4182 88.9987 48.8784 87.469 48.9695C86.995 48.9976 86.5155 48.9443 86.043 48.9891C84.3008 49.1377 82.6441 49.8087 81.2896 50.9143C80.7049 51.3911 80.5198 52.0809 80.5983 52.8858C80.7175 54.1057 80.782 55.327 79.9996 56.3912C79.1618 57.5245 78.1985 58.5594 77.1279 59.476C76.3318 60.1486 75.6115 60.906 74.9798 61.7349C74.2423 62.7276 74.2493 63.3768 75.1046 64.242C76.9536 66.1116 78.818 67.9657 80.6979 69.8044C81.7271 70.8084 82.6735 71.9161 83.8303 72.7658C84.9072 73.5552 86.2337 73.4206 87.2264 72.5036C87.8093 71.9767 88.2472 71.309 88.4982 70.5644C88.9644 69.14 89.5294 67.7499 90.1892 66.4041C91.3586 64.0751 93.2207 62.3378 94.7617 60.3369C95.0842 59.9163 95.2749 59.3961 95.6829 59.0525C95.8343 59.1928 95.8231 59.3961 95.8315 59.5812C95.8834 60.4856 95.9493 61.39 95.9717 62.2944C96.025 65.1492 95.8217 67.9816 95.1389 70.7495C94.6021 72.9984 93.7719 75.167 92.6696 77.1995C91.4187 79.4686 89.8088 81.5204 87.9022 83.2751C85.2746 85.7121 82.1898 87.3414 78.9283 88.5781C76.2221 89.6073 73.408 90.2383 70.563 90.6814C67.7488 91.116 64.9122 91.0698 62.0798 90.9618C61.2866 90.9404 60.4977 90.8375 59.7256 90.6547C57.8803 90.1906 56.035 89.7195 54.2571 88.996C53.7411 88.787 53.169 88.5991 52.5913 88.8557C52.4651 88.6482 52.2716 88.5907 52.0571 88.5122C50.7601 88.0355 49.1966 88.6524 48.0567 87.8111C47.6599 87.5153 47.6585 86.5127 47.3724 86.9193C47.0864 87.326 46.9083 87.9009 46.3909 88.1224C46.5185 87.5728 46.5592 87.9822 46.8676 87.5615C47.1761 87.1409 47.5267 86.1201 47.0738 85.7766C43.5403 83.0718 40.7752 79.6112 38.4925 75.7048C37.7227 74.3853 37.2529 72.9004 36.9136 71.3777C36.148 67.9409 36.2714 64.507 36.8449 61.0548C37.1758 59.0288 37.6643 57.0316 38.306 55.0816C39.034 52.9425 40.1495 50.9557 41.5969 49.2205C41.6123 49.2009 41.6684 49.2205 41.7048 49.2205C41.7574 49.292 41.8282 49.3481 41.9098 49.3829C41.9915 49.4177 42.081 49.4299 42.169 49.4182C43.8516 49.1784 45.4332 49.5066 46.9363 50.3184C47.8646 50.8162 48.8854 51.0377 49.78 50.4208C51.3672 49.3285 51.9197 48.274 51.593 46.2759C51.3111 44.491 51.2845 42.7158 51.2761 40.9281ZM63.5731 59.9359C63.5535 59.2152 62.7094 58.0472 61.9452 57.8467C60.1687 57.3798 58.4089 56.7544 56.537 56.9086C55.3648 57.0054 54.2375 57.3293 53.2994 58.0907C51.8818 59.232 51.1751 60.996 50.1627 62.4865C49.5879 63.3278 49.0102 64.134 48.2544 64.7818C47.0457 65.825 45.5328 66.3859 44.3395 67.4782C43.5192 68.2326 42.5503 68.8173 41.9656 69.8254C41.5744 70.5027 41.158 71.2164 41.5618 72.0689C41.9336 72.8941 42.531 73.5974 43.2851 74.0979C44.547 74.9167 45.9492 75.3598 47.3093 75.9207C49.0003 76.6218 50.1978 77.902 51.0952 79.4864C51.606 80.4234 52.2424 81.2862 52.9867 82.051C53.9416 82.9918 54.9722 83.8556 56.2201 84.4501C57.5452 85.0811 58.6515 85.1063 59.8728 84.2608C60.5472 83.7925 61.1782 83.2611 61.8723 82.8194C63.2492 81.9444 64.8169 81.6345 66.2793 81.0204C67.7768 80.3922 69.2758 79.8328 70.2727 78.282C71.5122 76.3554 70.7284 74.7583 69.165 73.8847C67.8792 73.1668 66.4644 72.7237 65.0524 72.3017C63.0894 71.7156 61.3801 70.6948 60.1757 68.8551C59.246 67.4347 59.2474 65.3132 60.2388 63.9475C60.8151 63.1553 61.6157 62.6295 62.2915 61.9578C62.8552 61.3928 63.5241 60.8768 63.5731 59.9359ZM70.5658 39.359C69.8366 39.2412 69.1636 39.5974 68.4625 39.6773C67.2791 39.8091 66.205 40.2746 65.1211 40.7247C64.5701 40.9547 64.0176 41.1762 63.5381 41.5745C63.238 41.824 63.2198 42.0834 63.3824 42.3975C63.5351 42.6634 63.7636 42.8777 64.0387 43.0131C64.6004 43.3244 65.1457 43.6647 65.6722 44.0325C66.4223 44.5737 67.1304 45.1794 67.8778 45.7277C68.2466 45.9997 68.6111 46.297 69.0654 46.4134C70.4045 46.7569 71.6104 46.6714 72.5162 45.3533C72.731 45.0543 72.9304 44.7445 73.1135 44.4251C73.7543 43.2515 73.9142 42.0063 73.2327 40.8313C72.655 39.8316 71.8025 39.1431 70.5658 39.3646V39.359Z" fill="#7FB5D6"/>
<path d="M44.2063 46.4757L44.2995 46.3853L44.2063 46.4757Z" fill="#FF5C00"/>
<path d="M44.7139 46.0194C46.5451 44.083 48.64 42.4999 50.7769 40.9827C50.9171 40.8804 51.0966 40.8047 51.2761 40.9281C51.2845 42.7158 51.3111 44.491 51.6014 46.2703C51.9281 48.2684 51.3756 49.3229 49.7884 50.4152C48.8938 51.0321 47.873 50.8106 46.9448 50.3128C45.436 49.5009 43.8502 49.1728 42.1774 49.4126C42.0894 49.4243 41.9999 49.4121 41.9182 49.3773C41.8366 49.3425 41.7658 49.2864 41.7133 49.2149" fill="#FF5C00"/>
<path d="M45.5636 89.282C45.6576 89.5344 45.5636 89.6297 45.3252 89.6045C45.3193 89.5676 45.3208 89.5299 45.3296 89.4936C45.3384 89.4573 45.3544 89.4231 45.3766 89.3931C45.3988 89.363 45.4268 89.3377 45.4589 89.3187C45.491 89.2996 45.5266 89.2871 45.5636 89.282Z" fill="#FC4613"/>
<path d="M45.924 88.78C46.0067 89.024 45.924 89.1278 45.6842 89.0941C45.6746 89.0207 45.6945 88.9465 45.7394 88.8877C45.7843 88.8288 45.8507 88.7901 45.924 88.78Z" fill="#FC4613"/>
<path d="M46.2535 88.2696C46.3727 88.529 46.2717 88.6131 46.0305 88.5837C46.0206 88.5128 46.0381 88.4407 46.0796 88.3823C46.121 88.3239 46.1832 88.2836 46.2535 88.2696Z" fill="#FC4613"/>
<path d="M63.5731 59.9359C63.5241 60.8711 62.8552 61.3871 62.2944 61.9452C61.6185 62.6168 60.8179 63.1427 60.2416 63.9349C59.2502 65.3006 59.2488 67.4221 60.1785 68.8425C61.3829 70.6821 63.095 71.7029 65.0552 72.289C66.4672 72.7097 67.882 73.1542 69.1678 73.8721C70.7312 74.7456 71.515 76.3427 70.2755 78.2693C69.2786 79.8201 67.7797 80.3796 66.2821 81.0077C64.8197 81.6219 63.252 81.9318 61.8751 82.8067C61.181 83.2484 60.55 83.7798 59.8756 84.2482C58.6543 85.0895 57.548 85.0684 56.2229 84.4375C54.975 83.8429 53.9444 82.9792 52.9895 82.0383C52.2452 81.2736 51.6088 80.4107 51.098 79.4738C50.1978 77.8893 48.9947 76.6077 47.3121 75.908C45.9562 75.3472 44.5484 74.9083 43.2879 74.0852C42.5336 73.5844 41.9362 72.8805 41.5646 72.0549C41.1608 71.2066 41.5772 70.4928 41.9685 69.8114C42.5532 68.8032 43.5221 68.2185 44.3423 67.4642C45.5328 66.3859 47.0457 65.825 48.2544 64.7874C49.0102 64.1396 49.5879 63.339 50.1628 62.4921C51.1751 61.0015 51.8818 59.2376 53.2994 58.0962C54.2375 57.3405 55.3648 57.011 56.537 56.9142C58.4089 56.76 60.1687 57.3853 61.9452 57.8523C62.7094 58.0528 63.5535 59.2208 63.5731 59.9359Z" fill="#FF5C00"/>
<path d="M93.1422 50.9311C94.355 53.0344 95.1052 55.3185 95.5777 57.7177C95.61 57.8775 95.6815 58.0416 95.5876 58.207C95.5707 58.2308 95.5553 58.2561 95.5399 58.2813L95.6198 58.3066C95.8189 58.5351 95.76 58.7945 95.6969 59.0539C95.2889 59.3975 95.0982 59.9191 94.7757 60.3383C93.2333 62.3448 91.3726 64.0765 90.2032 66.4055C89.5435 67.7513 88.9784 69.1414 88.5122 70.5658C88.2613 71.3104 87.8234 71.9781 87.2404 72.505C86.2477 73.422 84.9212 73.5566 83.8444 72.7672C82.6876 71.9175 81.7411 70.8041 80.7119 69.8058C78.833 67.9708 76.9686 66.1167 75.1186 64.2434C74.2633 63.3782 74.2563 62.729 74.9938 61.7363C75.6256 60.9074 76.3459 60.15 77.142 59.4774C78.2125 58.5608 79.1758 57.5259 80.0136 56.3926C80.796 55.3255 80.7315 54.1043 80.6123 52.8872C80.5338 52.0823 80.7189 51.3925 81.3036 50.9157C82.6581 49.8101 84.3148 49.1391 86.057 48.9905C86.5295 48.9457 87.0091 48.9989 87.483 48.9709C89.0128 48.8798 90.3939 49.4196 91.754 50.0716C92.0695 50.223 92.3401 50.5301 92.7355 50.4362C92.7914 50.4545 92.8411 50.4879 92.8792 50.5327C92.9173 50.5775 92.9423 50.6319 92.9515 50.69C92.9066 50.868 92.9431 50.9718 93.1422 50.9311Z" fill="#FF5C00"/>
<path d="M70.5658 39.3646C71.8025 39.143 72.655 39.8315 73.2383 40.8369C73.9198 42.0119 73.7599 43.257 73.1191 44.4306C72.936 44.7501 72.7366 45.0599 72.5218 45.3589C71.616 46.6769 70.4101 46.7611 69.071 46.4189C68.6167 46.3025 68.2522 45.9983 67.8834 45.7333C67.136 45.185 66.428 44.5793 65.6778 44.038C65.1513 43.6702 64.606 43.33 64.0443 43.0187C63.7692 42.8832 63.5407 42.6689 63.388 42.4031C63.2254 42.089 63.2478 41.8296 63.5437 41.58C64.0232 41.1818 64.5757 40.9603 65.1267 40.7303C66.2106 40.2802 67.2847 39.8147 68.4681 39.6829C69.1692 39.6044 69.8366 39.2468 70.5658 39.3646Z" fill="#FF5C00"/>
<path d="M93.1394 41.8927C92.9781 41.8815 92.8954 41.7623 92.8267 41.6305C93.0693 41.5324 93.187 41.6025 93.1394 41.8927Z" fill="#FC4613"/>
<path d="M95.2805 84.279C95.2728 84.2449 95.273 84.2095 95.2811 84.1755C95.2891 84.1415 95.3048 84.1097 95.327 84.0827C95.3492 84.0556 95.3772 84.034 95.409 84.0195C95.4408 84.0049 95.4755 83.9977 95.5105 83.9986C95.5862 84.23 95.5034 84.3169 95.2805 84.279Z" fill="#FC4613"/>
<path d="M93.3847 42.1423C93.2712 42.1718 93.2319 42.1157 93.2445 42.0021C93.3847 41.9488 93.4408 41.9881 93.3847 42.1423Z" fill="#FC4613"/>
<path d="M93.7381 42.5265C93.6273 42.5461 93.5811 42.5013 93.6077 42.3863C93.7451 42.3302 93.7928 42.3737 93.7381 42.5265Z" fill="#FC4613"/>
<path d="M93.1422 50.9311C92.9431 50.9718 92.9066 50.868 92.9543 50.6899C93.1071 50.6913 93.1772 50.7713 93.1422 50.9311Z" fill="#FC4613"/>
<path d="M95.6204 58.3073L95.5399 58.2819C95.5554 58.2565 95.571 58.231 95.5879 58.207C95.6054 58.2247 95.621 58.2441 95.6345 58.2649C95.6402 58.2734 95.626 58.2932 95.6204 58.3073Z" fill="#FC4613"/>
<path d="M85.7948 114.259C85.7948 114.259 61.3493 114.211 57.8004 114.164C54.2515 114.116 46.4428 114.559 45.7052 113.831C44.9677 113.103 46.196 110.978 49.8669 109.51C53.5378 108.042 56.7109 107.06 58.3346 105.148C59.9583 103.235 61.0408 102.691 59.3161 102.078C57.5915 101.465 55.8219 101.565 52.0655 100.376C48.3091 99.1869 46.4694 97.4903 46.081 98.3386C45.6926 99.1869 44.9424 101.063 42.699 99.9988C40.4555 98.9345 39.5245 98.4045 39.99 97.5309C40.4555 96.6574 43.7296 92.1186 44.8275 90.3392C45.9254 88.5598 47.2336 85.9041 47.2336 85.9041C47.2336 85.9041 48.9162 87.5965 50.5133 88.0789C52.1104 88.5612 52.6011 88.8487 52.6011 88.8487L50.1669 92.5981C50.1669 92.5981 49.8991 92.9318 52.2534 93.5936C54.6076 94.2555 68.9967 98.4676 76.0707 96.1119C83.1447 93.7563 90.2873 90.9758 94.4476 85.2802C98.6078 79.5845 103.806 71.1533 102.992 63.604C102.179 56.0547 100.32 49.7505 94.47 43.4127C88.6201 37.0748 86.6753 36.0849 85.2704 37.0804C83.8654 38.076 83.7434 40.7962 82.7324 40.0713C81.7215 39.3464 77.5332 38.0732 77.1237 37.445C76.7143 36.8168 83.9649 25.2798 85.1007 25.3555C86.2365 25.4312 90.2144 27.5064 90.3659 28.1135C90.5173 28.7207 89.425 30.4229 89.6143 30.5828C89.8036 30.7426 103.877 38.2022 107.785 54.3384C111.693 70.4746 106.23 80.1005 103.848 84.1416C101.465 88.1827 90.4121 98.1956 84.638 99.5136C78.8638 100.832 71.25 101.562 72.6788 103.095C74.1077 104.627 73.5342 104.717 79.1737 107.582C84.8132 110.446 85.5227 110.191 86.1187 111.71C86.7146 113.228 85.7948 114.259 85.7948 114.259Z" fill="#F8F8F8"/>
</g>
<defs>
<clipPath id="clip0_852_36">
<rect width="140" height="140" fill="white"/>
</clipPath>
</defs>
</svg>
