<svg width="140" height="140" viewBox="0 0 140 140" fill="none" xmlns="http://www.w3.org/2000/svg">
<g clip-path="url(#clip0_852_80)">
<path d="M70 140C108.66 140 140 108.66 140 70C140 31.3401 108.66 0 70 0C31.3401 0 0 31.3401 0 70C0 108.66 31.3401 140 70 140Z" fill="#1E3B6C"/>
<path d="M86.7412 104.737C86.9176 105.815 87.6652 106.705 87.5994 107.89C87.5028 109.668 86.2694 111.058 84.483 111.082C83.8684 111.082 83.6822 111.187 83.853 111.845C84.357 113.789 83.1698 115.345 81.158 115.417C80.7142 115.434 80.2886 115.373 80.3544 116.043C80.6008 118.579 78.1298 119.441 76.1866 118.775C75.544 118.555 75.2962 118.495 75.2486 119.335C75.1226 121.526 72.7286 122.795 70.4956 121.899C69.9622 121.685 69.398 121.479 68.985 121.038C69.7144 120.315 70.665 119.804 71.1536 118.846C71.6324 117.914 72.156 116.918 71.5036 115.928C70.8036 114.863 69.664 114.514 68.432 114.758C67.5626 114.93 67.627 114.458 67.6326 113.893C67.655 111.584 66.6736 110.517 64.3636 110.363C63.9156 110.334 63.7602 110.207 63.7308 109.74C63.5908 107.521 63.0042 106.932 60.8538 106.831C60.4212 106.812 60.2392 106.722 60.1916 106.242C59.983 104.119 58.198 102.939 56.1232 103.387C54.8884 103.653 54.0456 104.523 53.0124 105.097C50.9642 102.749 48.9006 100.415 46.872 98.0504C44.1476 94.8705 41.4382 91.6785 38.7436 88.4744C36.19 85.4504 33.6168 82.4418 31.43 79.1294C28.294 74.3806 25.9098 69.2804 24.57 63.7448C23.478 59.2214 23.17 54.6448 24.4482 50.0822C25.207 47.3648 26.6084 45.024 28.4942 42.9562C31.4678 39.6942 34.8628 37.023 39.0838 35.5586C42.4854 34.3562 46.1238 33.9782 49.7 34.4554C55.4022 35.196 60.4954 37.324 65.1882 40.5398C66.4642 41.4335 67.6801 42.41 68.8282 43.463C69.0956 43.7038 69.3476 43.9572 69.7256 44.0118C69.7778 44.2655 69.9109 44.4955 70.105 44.667C71.358 45.787 72.625 46.907 73.8276 48.09C77.0476 51.261 80.22 54.4684 83.4176 57.6562C83.713 57.9502 83.9538 58.3198 84.3976 58.4388C84.427 58.8252 84.6902 59.0674 84.9352 59.3264C85.5092 59.9368 86.0762 60.5528 86.646 61.1674L91.3024 66.1962C91.2325 66.3749 91.1501 66.5484 91.056 66.7156C88.536 70.567 85.8606 74.3106 82.985 77.9058C81.9 79.2624 80.9144 80.7058 79.5662 81.8412C77.3668 79.163 75.0736 76.5688 72.555 74.1874C71.8802 73.549 71.3034 72.7776 70.4102 72.3954C70.1302 71.6646 69.4736 71.2516 68.9374 70.7546C65.1714 67.2546 61.2626 63.9072 57.8508 60.039C57.5386 59.6848 57.2642 59.2508 56.749 59.1248C56.7126 59.0011 56.6579 58.8836 56.5866 58.7762C54.6882 56.7336 51.7846 55.6542 48.811 56.7294C47.1716 57.323 46.2546 58.8028 46.6452 60.1832C47.1814 62.076 47.712 63.9828 48.566 65.758C48.972 66.598 49.126 67.6312 50.0192 68.1982C50.1592 69.4582 51.0216 70.3766 51.6768 71.3496C54.0607 74.9193 56.8707 78.1853 60.0446 81.0754C61.0162 81.956 61.81 83.0914 63.0938 83.6094C63.224 84.0434 63.5908 84.2646 63.9142 84.532C65.8284 86.114 67.7395 87.7007 69.6472 89.292C69.6008 89.5174 69.4675 89.7156 69.2762 89.8436C68.2066 90.6836 67.1132 91.4998 66.0758 92.379C64.435 93.7678 62.8936 95.2476 62.1292 97.342C61.6532 98.6412 62.2804 99.8242 63.609 100.219C64.5386 100.499 65.4066 100.348 66.269 99.9964C68.789 98.9604 70.861 97.209 73.0422 95.648C74.5388 94.5756 75.9514 94.4426 77.3052 95.508C80.2256 97.8082 82.7498 100.524 85.3524 103.16C85.841 103.662 86.0062 104.451 86.7412 104.737Z" fill="#EB600A"/>
<path d="M84.3976 58.4416C83.9594 58.3226 83.7186 57.953 83.4176 57.659C80.22 54.4712 77.0406 51.2638 73.8276 48.0928C72.6278 46.9098 71.358 45.7968 70.105 44.6698C69.9109 44.4982 69.7778 44.2683 69.7256 44.0146C72.2456 41.5967 75.0022 39.5122 78.1158 37.9148C80.7039 36.5721 83.4456 35.5492 86.2806 34.8684C89.418 34.125 92.5806 33.628 95.809 33.8086C99.7416 34.0284 103.538 34.8824 106.819 37.1966C109.82 39.3134 112.041 42.1315 113.62 45.4481C115.665 49.7447 116.481 54.2976 116.262 59.0184C116.039 63.8092 114.607 68.2821 112.388 72.5185C109.929 77.2099 106.66 81.3105 103.184 85.2585C99.4756 89.4753 95.5304 93.4836 91.9842 97.8459C90.1642 100.086 88.4772 102.432 86.73 104.731C85.995 104.451 85.8298 103.656 85.33 103.155C82.7274 100.519 80.2032 97.8026 77.2828 95.5024C75.929 94.437 74.5164 94.57 73.0198 95.6424C70.8386 97.2034 68.768 98.9548 66.2466 99.9908C65.3884 100.342 64.5204 100.489 63.5866 100.213C62.258 99.8186 61.6266 98.6356 62.1068 97.3363C62.8712 95.2363 64.4126 93.7622 66.0534 92.3734C67.0908 91.4942 68.1842 90.6808 69.2538 89.838C69.3495 89.7737 69.4315 89.6911 69.4952 89.595C69.5588 89.4989 69.6029 89.3911 69.6248 89.278C69.879 89.2419 70.12 89.1417 70.3248 88.9867C72.2442 87.6637 74.0964 86.2484 76.0998 85.0402C77.4466 84.2296 78.729 83.2593 79.5396 81.8313C80.8878 80.7015 81.8734 79.2526 82.9584 77.896C85.834 74.3008 88.5066 70.5572 91.0294 66.7058C91.1236 66.5386 91.2059 66.365 91.2758 66.1863C93.0174 64.8311 93.6782 60.6998 92.4882 58.688C91.875 57.652 91.1568 56.826 89.8618 56.588C87.6932 56.2002 86.0258 57.2278 84.3976 58.4416Z" fill="white"/>
<path d="M53.0124 105.099C54.0456 104.525 54.8884 103.656 56.1232 103.39C58.198 102.942 59.983 104.122 60.1916 106.245C60.2392 106.725 60.4212 106.814 60.8538 106.834C63.0042 106.935 63.5908 107.524 63.7308 109.743C63.7602 110.209 63.9156 110.337 64.3636 110.366C66.6736 110.52 67.655 111.587 67.6326 113.896C67.6326 114.456 67.5626 114.933 68.432 114.761C69.664 114.517 70.8022 114.866 71.5036 115.931C72.156 116.921 71.6324 117.916 71.1536 118.849C70.6622 119.806 69.7144 120.317 68.985 121.041C67.7138 121.272 66.4314 121.629 65.2232 120.841C64.5302 120.389 64.2012 119.69 64.3972 118.912C64.5512 118.303 64.4154 118.203 63.8498 118.152C62.0802 117.992 60.9812 116.864 60.837 115.08C60.7978 114.597 60.676 114.44 60.1902 114.6C58.1462 115.27 56.2814 113.294 56.3514 111.503C56.3752 110.9 56.1456 110.712 55.5604 110.72C54.8604 110.73 54.1604 110.72 53.4506 110.505C51.8994 110.027 51.149 108.487 52.0226 106.744C52.3082 106.173 52.6806 105.645 53.0124 105.099Z" fill="white"/>
<path d="M56.749 59.1219C57.2642 59.2479 57.5386 59.682 57.8508 60.0362C61.2626 63.9044 65.1714 67.2531 68.9374 70.7517C69.4736 71.2487 70.126 71.6618 70.4102 72.3926C70.0294 72.9526 69.6416 73.5125 69.2706 74.0837C67.2098 77.2571 65.1509 80.4304 63.0938 83.6037C61.81 83.0857 61.0162 81.9504 60.0446 81.0698C56.8707 78.1797 54.0607 74.9137 51.6768 71.344C51.0216 70.371 50.1634 69.454 50.0192 68.1926L56.749 59.1219Z" fill="white"/>
</g>
<defs>
<clipPath id="clip0_852_80">
<rect width="140" height="140" fill="white"/>
</clipPath>
</defs>
</svg>
