<svg width="140" height="140" viewBox="0 0 140 140" fill="none" xmlns="http://www.w3.org/2000/svg">
<g clip-path="url(#clip0_852_22)">
<path d="M70.0007 139.826C108.564 139.826 139.826 108.564 139.826 70.0007C139.826 31.437 108.564 0.174927 70.0007 0.174927C31.437 0.174927 0.174957 31.437 0.174957 70.0007C0.174957 108.564 31.437 139.826 70.0007 139.826Z" fill="#133B6F"/>
<path d="M70.0007 140C31.4025 140 0 108.597 0 70.0007C0 31.4039 31.4025 0 70.0007 0C108.599 0 140.001 31.4026 140.001 70.0007C140.001 108.599 108.599 140 70.0007 140ZM70.0007 0.348513C31.5943 0.348513 0.348513 31.5943 0.348513 70.0007C0.348513 108.407 31.5943 139.651 70.0007 139.651C108.407 139.651 139.653 108.406 139.653 70.0007C139.653 31.5957 108.407 0.348513 70.0007 0.348513Z" fill="#133B6F"/>
<path d="M74.9499 106.968C63.0388 106.968 51.1273 106.974 39.2154 106.986C37.9193 106.986 37.0165 106.477 36.1222 105.587C35.6029 105.069 35.2278 104.512 35.197 103.874C35.1536 102.983 35.197 102.016 35.5049 101.199C35.88 100.201 36.5994 99.3444 37.1089 98.3996C37.7989 97.1119 38.4022 95.778 39.0936 94.4918C39.5706 93.5733 40.1142 92.6911 40.72 91.852C41.0727 91.3803 41.6074 90.8471 42.1295 90.7547C42.9147 90.6147 43.7195 89.8099 44.5747 90.5979C44.6306 90.6483 44.7552 90.6231 44.8476 90.6315C46.2542 90.7449 47.6693 90.7967 49.0647 90.9898C50.1956 91.1466 51.2958 91.5161 52.4239 91.7037C52.8438 91.7722 53.3029 91.6225 53.7298 91.5091C54.2602 91.3691 54.7893 91.2488 55.1882 90.7631C55.6081 90.2466 56.168 89.8351 56.6396 89.3634C57.6026 88.4047 58.567 87.4459 59.5075 86.4634C60.3739 85.562 61.1619 84.5766 62.0801 83.7341C62.5308 83.3142 63.1858 82.9321 63.7681 82.9013C67.3498 82.7095 70.9371 82.6213 74.523 82.5066C75.3628 82.48 76.2137 82.3904 77.0311 82.5178C78.4182 82.7319 79.4721 82.0125 80.5611 81.398C81.5058 80.869 82.3806 80.2223 83.2974 79.6289C84.6242 78.7625 85.9119 77.8247 87.292 77.0563C88.3655 76.4587 89.3719 75.5601 90.6945 75.6175C91.6393 75.6595 92.5687 75.798 93.4112 76.4139C94.7661 77.4034 95.5751 78.7667 96.3645 80.1929C96.7844 80.96 97.3905 81.6234 97.8719 82.361C98.2344 82.9209 98.513 83.5311 98.8629 84.098C99.2128 84.6648 99.6173 85.2261 99.9994 85.7873C100.551 86.5963 101.088 87.4151 101.665 88.2059C102.086 88.8076 102.548 89.3795 103.048 89.9177C103.951 90.8541 104.902 91.7373 105.839 92.6484C106.669 93.4476 107.518 94.2286 108.337 95.0278C109.478 96.1476 110.605 97.2813 111.735 98.4094C112.444 99.1092 113.123 99.858 113.867 100.521C114.738 101.295 115.172 103.079 114.801 104.194C114.344 105.563 113.261 106.25 112.129 106.87C111.759 107.073 111.216 106.97 110.752 106.97C98.8209 106.969 86.887 106.968 74.9499 106.968Z" fill="white"/>
<path d="M80.6352 79.0746C80.6352 79.0746 82.6745 81.5002 83.4191 81.566C84.1638 81.6318 84.1638 81.6304 86.1485 80.7906C87.8966 80.0516 87.5285 77.4216 87.5285 77.4216L80.6352 79.0746Z" fill="#FF5C00"/>
<path d="M42.5116 88.3361C42.5116 88.3361 44.751 90.5756 45.5012 90.5756C46.2514 90.5756 46.2486 90.5756 48.1536 89.5692C49.8332 88.6818 49.2369 86.0925 49.2369 86.0925L42.5116 88.3361Z" fill="#FF5C00"/>
<path d="M50.7443 85.8C50.7443 85.8 52.785 88.227 53.5296 88.2913C54.2742 88.3557 54.2728 88.3557 56.2575 87.5159C58.0071 86.7769 57.639 84.147 57.639 84.147L50.7443 85.8Z" fill="#FF5C00"/>
<path d="M60.4593 83.5577C60.4593 83.5577 62.4986 85.9847 63.2432 86.0491C63.9878 86.1135 63.9878 86.1135 65.9725 85.2737C67.7207 84.5347 67.3526 81.9047 67.3526 81.9047L60.4593 83.5577Z" fill="#FF5C00"/>
<path d="M70.9203 82.0629C70.9203 82.0629 72.961 84.4899 73.7056 84.5543C74.4502 84.6187 74.4502 84.6187 76.4349 83.7803C78.1831 83.0399 77.8149 80.4099 77.8149 80.4099L70.9203 82.0629Z" fill="#FF5C00"/>
<path d="M93.1509 66.4218C92.7898 62.6833 90.6315 58.8035 86.5908 57.5158C85.0646 57.0566 83.4828 56.8089 81.8893 56.7796C79.5659 56.6858 77.1697 56.7978 74.8519 56.9307C69.5335 57.2415 64.2995 55.4933 60.2353 52.0488C56.9675 49.4351 54.3102 46.139 52.4491 42.3912C52.0292 41.5402 51.5309 40.72 51.0256 39.911C50.7992 39.4905 50.4443 39.1534 50.0127 38.949C49.5811 38.7445 49.0954 38.6834 48.6266 38.7745C46.4441 39.1738 44.2635 39.5937 42.0847 40.0342C41.5513 40.1377 41.0338 40.3104 40.5451 40.5478C38.072 41.7999 35.4129 42.6445 32.6706 43.049C31.0162 43.3079 29.3927 43.7768 27.7719 44.1813C26.8775 44.4081 26.5122 44.835 26.6339 45.7573C26.8414 47.9639 27.1684 50.1576 27.6137 52.3287C28.669 56.83 29.8741 61.3032 31.054 65.7779C32.0338 69.4618 33.0779 73.1219 34.0591 76.803C34.177 77.417 34.2365 78.0407 34.2368 78.6659C34.2036 79.1596 34.2309 79.6555 34.318 80.1425C34.8639 81.7195 35.4615 83.2796 36.111 84.823C37.1957 87.4711 40.9076 89.0219 43.7223 88.1513C51.8556 85.66 60.1906 84.1791 68.5241 82.6927C73.2703 81.9019 78.0417 81.2217 82.3806 79.6611C85.3583 78.7347 88.2186 77.4665 90.9045 75.882C91.583 75.559 92.1507 75.0424 92.536 74.3973C92.9213 73.7522 93.107 73.0074 93.0697 72.2569C93.1946 70.3145 93.2217 68.3669 93.1509 66.4218ZM90.0717 74.8868C85.3964 77.5151 80.304 79.3199 75.017 80.2223C71.1932 80.9669 67.319 81.4596 63.4979 82.242C56.753 83.6025 49.9773 84.7768 43.371 86.8861C41.4394 87.4977 39.7039 86.8455 38.209 85.5718C37.7808 85.1855 37.3791 84.7838 37.4112 84.3793C38.9509 84.0993 40.3785 83.9048 41.788 83.5941C45.2731 82.8047 48.7526 81.9467 52.2489 81.1629C55.9944 80.2797 59.7049 79.4077 63.5287 78.6883C67.3526 77.9689 71.2268 77.4748 75.0618 76.8058C79.3647 76.0668 83.5165 74.6246 87.3508 72.5368C88.812 71.7432 90.2032 70.8391 91.7779 69.8901C91.7919 70.6179 91.7849 71.2828 91.8142 71.942C91.8606 72.5517 91.7188 73.1611 91.4079 73.6877C91.0971 74.2143 90.6321 74.6328 90.0759 74.8868H90.0717Z" fill="#7FB5D6"/>
<path d="M50.7429 51.8221C52.4057 50.5146 54.274 49.492 56.2715 48.796C56.4694 48.7367 56.6367 48.6033 56.7387 48.4236C56.8406 48.244 56.8693 48.0319 56.8188 47.8317C56.7124 47.444 56.2589 47.1444 55.8544 47.2844C53.6046 48.073 51.5023 49.232 49.6344 50.7135C49.3027 50.9767 49.3545 51.5533 49.6344 51.8221C49.9633 52.151 50.4098 52.0866 50.7429 51.8221Z" fill="#133B6F"/>
<path d="M54.3246 54.9461C55.9595 52.847 58.1973 51.2982 60.7378 50.5078C61.698 50.2082 61.2879 48.6882 60.3179 48.9961C57.3932 49.9155 54.8249 51.7177 52.9656 54.1553C52.7066 54.4912 52.9138 55.0328 53.2455 55.2274C53.6486 55.4639 54.0587 55.2834 54.3176 54.9475L54.3246 54.9461Z" fill="#133B6F"/>
<path d="M59.3942 57.3899L59.4949 57.2499C59.5327 57.1995 59.5859 57.1323 59.5173 57.2205C59.5873 57.1309 59.6573 57.0413 59.7287 56.9546C59.8714 56.7782 60.0179 56.6051 60.1682 56.4353C60.4593 56.1031 60.764 55.7835 61.0821 55.4765C61.4003 55.1695 61.7269 54.8752 62.0619 54.5934L62.3264 54.3792L62.4328 54.2952C62.2998 54.4002 62.4762 54.2616 62.4902 54.2518C62.6712 54.1165 62.8546 53.984 63.0403 53.8543C63.3762 53.6206 63.5637 53.1545 63.3202 52.7822C63.1046 52.4477 62.6078 52.2503 62.2481 52.5023C60.6296 53.6282 59.206 55.011 58.0337 56.5963C57.7874 56.9266 57.9679 57.4864 58.3136 57.6684C58.7237 57.8853 59.124 57.7398 59.3872 57.3885L59.3942 57.3899Z" fill="#133B6F"/>
<path d="M64.703 60.6118C64.7546 60.1379 64.8483 59.6695 64.983 59.2122C65.1158 58.7355 65.2978 58.274 65.526 57.8349C65.9846 56.9302 66.6133 56.1223 67.3778 55.4555C67.6955 55.1756 67.6647 54.6339 67.3778 54.347C67.2292 54.2034 67.0308 54.1232 66.8242 54.1232C66.6176 54.1232 66.4191 54.2034 66.2706 54.347C64.4713 55.9658 63.3525 58.2065 63.1396 60.6174C63.1004 61.0373 63.5287 61.4012 63.9234 61.4012C64.3811 61.4012 64.668 61.0401 64.7072 60.6174L64.703 60.6118Z" fill="#133B6F"/>
</g>
<defs>
<clipPath id="clip0_852_22">
<rect width="140" height="140" fill="white"/>
</clipPath>
</defs>
</svg>
