<svg width="140" height="140" viewBox="0 0 140 140" fill="none" xmlns="http://www.w3.org/2000/svg">
<g clip-path="url(#clip0_852_2)">
<path d="M70.0196 0.00177002C108.923 0.00177002 140.147 31.3996 140 70.648C139.859 109.282 107.865 140.926 68.2551 139.981C30.1244 139.07 -0.723545 107.481 0.0126019 68.6208C0.709413 31.5795 30.7439 0.212503 70.0196 0.00177002ZM58.2891 90.3038C58.0854 92.0922 57.8479 93.8764 57.6892 95.6691C57.5206 97.5573 57.0078 99.4215 57.5642 101.356C58.0573 103.076 58.2399 103.257 59.8513 102.63L63.6247 101.168C64.927 104.632 67.1608 107.32 70.0871 109.597C79.7525 117.129 99.3784 115.391 105.821 102.316C106.746 102.726 107.66 103.159 108.596 103.542C111.405 104.703 111.209 104.679 111.453 101.657C111.92 95.9178 111.814 90.2041 111.363 84.4806C111.235 82.8565 111.117 81.2254 111.383 79.6C111.909 76.5408 111.918 73.415 111.408 70.353C111.175 68.9959 111.268 67.6921 111.453 66.3547C112.229 60.6283 111.032 54.902 111.415 49.1743C111.467 48.3904 110.876 48.2569 110.378 48.0616C108.552 47.3437 106.726 46.6104 104.86 45.9796C102.687 45.2448 100.566 44.371 98.2433 44.0774C96.2034 43.8203 94.6454 42.1723 92.7798 41.6244C90.3185 40.9037 87.7869 40.4246 85.327 39.194C85.327 40.131 85.32 40.9009 85.327 41.6722C85.3537 44.3625 86.1207 47.0641 85.3972 49.7376C84.7651 52.0768 84.9617 54.4159 85.0966 56.7621C84.9716 56.8337 84.7763 56.9953 84.7327 56.9616C83.4318 55.9501 83.0385 56.9349 82.5763 57.8916C81.9553 59.1771 83.2914 58.9902 83.7339 59.4581C84.2439 59.9947 84.9702 59.8318 85.6248 59.8795C85.726 62.9858 84.751 66.0611 85.3439 69.1813L81.6168 69.3218C82.2911 60.6888 80.9143 52.0178 82.277 43.3777C82.8755 39.5943 81.9034 39.0422 78.2662 40.3502C72.2955 42.4983 66.249 44.437 60.3443 46.7761C57.8156 47.7764 57.8156 47.6823 57.8465 50.4289C57.862 51.5528 57.8662 52.6963 57.6541 53.7893C57.2804 55.7207 57.2495 57.7028 57.5628 59.6449C57.9322 62.0108 58.4155 64.3443 57.6597 66.7775C57.3071 67.9113 57.456 69.2417 57.8269 70.4527C58.2975 71.9897 58.2118 73.5435 58.1247 75.1268C57.9154 78.9312 57.0668 82.7132 57.6161 86.5471C56.4796 86.2563 55.5706 86.2802 55.2279 87.7357C54.8851 89.1911 56.2394 88.8315 56.7816 89.319C57.227 89.7208 57.928 89.7559 58.2891 90.3024V90.3038ZM54.215 59.1645C54.562 58.8975 54.9033 58.625 55.2574 58.3679C56.8153 57.244 56.717 56.519 54.8486 55.4429C54.857 53.9804 54.9146 52.5151 54.8556 51.0554C54.8022 49.6941 54.3063 48.4508 53.0026 47.8579C49.6843 46.3477 46.4264 44.5789 42.955 43.5674C38.5239 42.2599 34.1631 40.7251 29.8898 38.9692C28.7659 38.5126 28.2124 38.7065 28.5088 39.9624C28.9457 41.8211 28.7083 43.6362 28.4709 45.4851C27.7165 51.3448 29.0398 57.2426 28.2096 63.108C28.1562 63.4845 28.284 63.8891 28.35 64.2783C28.6939 66.3315 28.8495 68.4119 28.8151 70.4935C28.6128 77.9731 27.6982 85.419 28.034 92.9197C28.0859 94.0689 28.3754 94.6281 29.4683 94.9638C36.7736 97.2117 43.7094 100.5 51.1032 102.462C52.2664 102.769 53.2723 103.611 54.5634 103.468C54.5634 103.539 54.5634 103.608 54.5634 103.684L54.7038 103.667L54.5311 103.494C53.9691 100.6 54.2712 97.7216 54.4032 94.7967C54.7558 87.0332 54.7179 79.2502 54.8247 71.4755C54.871 67.3592 54.4945 63.2625 54.2192 59.163L54.215 59.1645Z" fill="#1E3B6B"/>
<path d="M54.569 103.467C53.278 103.608 52.2721 102.765 51.1089 102.461C43.7094 100.495 36.7694 97.2099 29.474 94.9635C28.381 94.6277 28.0916 94.0686 28.0396 92.9193C27.6983 85.4186 28.6128 77.9727 28.8222 70.4917C28.8566 68.4101 28.701 66.3297 28.3571 64.2765C28.2967 63.8873 28.1689 63.4827 28.2166 63.1062C29.0469 57.2408 27.7236 51.3431 28.478 45.4833C28.7154 43.6344 28.9528 41.8193 28.5159 39.9606C28.2195 38.7047 28.773 38.5108 29.8969 38.9674C34.1701 40.7233 38.531 42.2581 42.9621 43.5656C46.4335 44.5771 49.6913 46.3459 53.0096 47.8561C54.3133 48.449 54.8093 49.6923 54.8627 51.0537C54.9217 52.5133 54.8627 53.9786 54.8556 55.4411C53.684 56.3023 52.5516 57.2253 51.3266 58.005C50.3657 58.6162 50.3826 59.1009 50.9979 60.0154C51.6778 61.0284 52.1906 60.7038 52.8677 60.1559C53.3018 59.8047 53.7697 59.4928 54.222 59.1641C54.503 63.2635 54.8739 67.3602 54.8191 71.4765C54.7166 79.2512 54.7545 87.0343 54.3977 94.7977C54.2656 97.7227 53.9565 100.601 54.5255 103.495L54.569 103.467ZM47.4618 65.1138C47.4183 64.1599 46.6189 63.8943 46.071 63.4968C45.4051 63.0093 45.2632 63.848 45.0061 64.1795C43.9665 65.5198 44.0228 67.2436 43.5437 68.7791C43.3077 69.535 44.3487 69.4816 44.8446 69.7401C45.3925 70.0351 45.7985 69.9438 46.0556 69.3411C46.647 67.9587 46.6231 66.3726 47.4618 65.1194V65.1138ZM42.9382 75.8457C42.6446 75.1882 41.9801 74.9831 41.4477 74.6291C40.9419 74.2919 40.6427 74.5308 40.3519 74.9635C39.5722 76.1267 38.7643 77.2717 37.9734 78.4279C37.7107 78.8129 37.4705 79.2189 37.9636 79.6024C38.4792 80.0028 39.1099 80.8359 39.662 80.3681C41.0796 79.1725 41.8354 77.4108 42.9382 75.8514V75.8457ZM48.6827 82.474C47.8805 82.8955 47.445 83.7145 47.5223 84.3734C47.6501 85.4636 48.8597 85.76 49.69 85.7783C50.6382 85.8092 51.078 84.5589 50.9431 83.9421C50.738 83.0135 49.4736 82.991 48.6827 82.4796V82.474ZM31.4914 85.3091C31.8567 85.7179 31.5237 86.9205 32.4312 86.6943C33.3388 86.4681 34.7352 86.2293 34.7816 84.9452C34.8012 84.3622 34.1199 83.2059 33.3528 83.4349C32.6321 83.6527 31.3678 83.8831 31.4914 85.3091Z" fill="#FCFCFC"/>
<path d="M105.824 102.317C99.3813 115.392 79.7554 117.13 70.0899 109.598C67.1608 107.318 64.9271 104.631 63.6276 101.169C63.4576 100.466 63.3073 99.7528 63.1134 99.0531C60.5551 89.7977 62.6722 81.8278 69.6881 75.2164C73.0598 72.0385 77.1493 70.2796 81.6294 69.3271L85.3565 69.1866C89.0541 69.3271 92.6618 69.9846 95.9028 71.8067C102.124 75.3091 105.563 80.9778 107.316 87.6581C108.618 92.6412 107.784 97.5766 105.824 102.317ZM89.4068 94.8314C89.4068 92.6918 89.373 90.5521 89.4194 88.4139C89.4475 87.1397 88.9502 86.5426 87.6394 86.5623C85.1613 86.5974 82.6817 86.5833 80.2035 86.5623C79.2285 86.5623 78.5415 86.8573 78.4699 87.9433C78.4039 88.9435 78.4179 89.934 79.7104 90.1475C81.4566 90.4285 81.9582 91.5524 81.9301 93.1666C81.8823 95.7558 81.902 98.3465 81.9301 100.936C81.9498 102.421 81.4735 103.464 79.8481 103.663C78.2564 103.854 78.5036 105.044 78.5373 106.094C78.5795 107.359 79.5207 107.248 80.3749 107.249C83.8674 107.249 87.3599 107.249 90.8524 107.249C91.8063 107.249 92.7054 107.224 92.8192 105.965C92.9273 104.806 92.8037 103.826 91.3581 103.591C89.8521 103.348 89.3744 102.312 89.3913 100.902C89.4264 98.8831 89.4068 96.8559 89.4068 94.8314ZM81.5789 79.9677C81.5058 82.3743 83.1762 84.1374 85.5884 84.202C87.7561 84.2596 89.7018 82.4108 89.765 80.2346C89.831 77.9489 88.134 76.1225 85.8707 76.0424C83.4108 75.9553 81.6533 77.5639 81.5789 79.9677Z" fill="#E9600D"/>
<path d="M105.824 102.317C107.784 97.5766 108.62 92.6412 107.31 87.6538C105.557 80.9736 102.112 75.3049 95.8972 71.8025C92.666 69.9761 89.0485 69.3285 85.3509 69.1824C84.7538 66.0607 85.7288 62.9868 85.6319 59.882C85.7344 58.796 86.3006 57.6342 85.1037 56.7688C84.9632 54.417 84.7721 52.0778 85.4043 49.7443C86.1278 47.075 85.3608 44.3692 85.3341 41.6788C85.327 40.9076 85.3341 40.1335 85.3341 39.2006C87.794 40.4313 90.3255 40.9104 92.7869 41.6311C94.6525 42.179 96.2105 43.8269 98.2503 44.084C100.573 44.3776 102.694 45.2515 104.867 45.9862C106.729 46.617 108.555 47.3504 110.386 48.0683C110.883 48.2636 111.474 48.397 111.422 49.181C111.039 54.9087 112.236 60.635 111.46 66.3613C111.279 67.6988 111.179 69.0025 111.415 70.3597C111.925 73.4217 111.916 76.5475 111.39 79.6066C111.124 81.2321 111.25 82.8632 111.37 84.4872C111.821 90.2107 111.932 95.9244 111.46 101.663C111.216 104.685 111.417 104.709 108.603 103.549C107.663 103.158 106.748 102.727 105.824 102.317ZM103.28 62.252C102.728 61.8671 102.174 61.4948 101.636 61.1014C101.098 60.7081 100.804 61.1647 100.532 61.4751C99.7549 62.3588 99.0146 63.2734 98.2588 64.1767C97.5901 64.9761 97.8373 65.5732 98.6353 66.1113C99.2703 66.5327 99.7269 66.7238 100.289 65.9174C101.078 64.7752 102.039 63.7482 103.28 62.252Z" fill="#FCFCFC"/>
<path d="M81.6238 69.3243C77.1451 70.2768 73.0542 72.0357 69.6825 75.2136C62.6666 81.825 60.5509 89.7949 63.1078 99.0503C63.3016 99.7528 63.4519 100.455 63.6219 101.166L59.8513 102.629C58.2399 103.255 58.0573 103.074 57.5642 101.354C57.0022 99.4198 57.5206 97.5611 57.6892 95.6673C57.848 93.8747 58.0854 92.0905 58.2891 90.3021C59.3582 90.68 60.2657 90.8528 60.7603 89.4001C61.2716 87.9025 59.9173 88.1175 59.3287 87.6637C58.8904 87.3307 58.3453 87.1425 57.8424 86.8882C57.8424 86.7126 57.8508 86.5271 57.5881 86.5398L57.6246 86.5538C57.0739 82.7157 57.9224 78.9379 58.1317 75.1335C58.2188 73.5558 58.3045 71.9964 57.8339 70.4594C57.463 69.2484 57.3141 67.918 57.6667 66.7842C58.4226 64.351 57.9393 62.0174 57.5698 59.6516C57.2566 57.7095 57.2875 55.7274 57.6611 53.796C57.8733 52.703 57.869 51.5482 57.8536 50.4355C57.8156 47.6848 57.8269 47.7789 60.3514 46.7828C66.2518 44.4437 72.3026 42.5049 78.2732 40.3569C81.9104 39.0489 82.8826 39.601 82.2841 43.3844C80.92 52.0203 82.2982 60.6926 81.6238 69.3243ZM65.5213 50.0155C64.0996 50.524 62.4882 51.0439 61.037 51.9177C60.2306 52.4024 60.8277 53.0177 61.0777 53.5305C61.3587 54.1121 61.7085 54.5561 62.5247 54.143C63.7246 53.5223 64.9652 52.9835 66.2378 52.5302C67.0231 52.2577 66.9402 51.8756 66.7688 51.2658C66.5974 50.6561 66.5848 49.993 65.5213 50.0155ZM73.2565 50.6912C72.488 50.9722 72.3911 51.7013 72.0483 52.2366C71.6929 52.7986 72.0286 53.0486 72.4599 53.279C73.796 53.9955 75.1418 54.6952 76.4638 55.4369C77.0426 55.7615 77.287 55.4369 77.4921 55.0085C77.7422 54.4915 78.5584 53.8438 77.9571 53.4181C76.5003 52.3799 74.8679 51.596 73.2565 50.6856V50.6912Z" fill="#FCFCFC"/>
<path d="M54.2192 59.1627C53.7669 59.4915 53.299 59.8033 52.8649 60.1546C52.1878 60.7039 51.675 61.0284 50.9951 60.0141C50.3797 59.0995 50.3629 58.6092 51.3238 58.0037C52.5488 57.224 53.6812 56.301 54.8528 55.4398C56.7213 56.5159 56.8196 57.2352 55.2616 58.3647C54.9076 58.6232 54.5662 58.8958 54.2192 59.1627Z" fill="#98BAD9"/>
<path d="M57.8423 86.8882C58.3411 87.1425 58.8903 87.3307 59.3287 87.6637C59.9215 88.1175 61.2716 87.9025 60.7602 89.4001C60.2657 90.8528 59.3554 90.68 58.2891 90.3021C57.928 89.7556 57.227 89.7204 56.7887 89.3186C56.2464 88.8312 54.8921 89.1936 55.2349 87.7353C55.5777 86.2771 56.4866 86.256 57.6232 86.5468L57.5866 86.5328L57.8423 86.8882Z" fill="#97B9D8"/>
<path d="M85.0995 56.7688C86.2964 57.6342 85.7302 58.796 85.6277 59.882C84.973 59.8384 84.2467 60.0014 83.7367 59.4605C83.2942 58.9927 81.9582 59.1796 82.5791 57.8941C83.0413 56.9374 83.4347 55.9525 84.7356 56.964C84.7791 57.002 84.9744 56.8404 85.0995 56.7688Z" fill="#90B4D3"/>
<path d="M54.5311 103.494L54.7067 103.667L54.5662 103.684C54.5662 103.612 54.5662 103.543 54.5662 103.467L54.5311 103.494Z" fill="#FCFCFC"/>
<path d="M47.4618 65.1194C46.6189 66.3726 46.647 67.9587 46.0569 69.3467C45.7998 69.9494 45.3939 70.0407 44.846 69.7457C44.35 69.4802 43.309 69.5406 43.5451 68.7848C44.0241 67.2492 43.9665 65.5254 45.0075 64.1852C45.2646 63.8536 45.4065 63.0149 46.0724 63.5024C46.6119 63.9 47.4182 64.1655 47.4618 65.1194Z" fill="#9BBDDB"/>
<path d="M42.9382 75.8514C41.8354 77.415 41.0796 79.1725 39.662 80.3737C39.1099 80.8416 38.4792 80.0085 37.9636 79.6081C37.4705 79.2245 37.7107 78.8185 37.9734 78.4336C38.7643 77.2774 39.5722 76.1324 40.3519 74.9691C40.6427 74.5364 40.9419 74.2976 41.4477 74.6348C41.9801 74.9888 42.6446 75.1939 42.9382 75.8514Z" fill="#9BBDDB"/>
<path d="M48.6827 82.4796C49.4736 82.991 50.7366 83.0135 50.9431 83.9547C51.0836 84.5715 50.6383 85.8218 49.69 85.7909C48.8597 85.7656 47.6501 85.4692 47.5223 84.386C47.445 83.7201 47.8805 82.9053 48.6827 82.4796Z" fill="#9DBDDC"/>
<path d="M31.4914 85.3091C31.3663 83.8831 32.6307 83.6527 33.3528 83.4349C34.1198 83.2059 34.8012 84.3622 34.7815 84.9452C34.7352 86.2293 33.357 86.4639 32.4312 86.6943C31.5054 86.9247 31.858 85.7179 31.4914 85.3091Z" fill="#9CBEDB"/>
<path d="M89.4068 94.8314C89.4068 96.8587 89.4264 98.8859 89.4068 100.912C89.3885 102.317 89.8661 103.358 91.3736 103.601C92.8192 103.835 92.9428 104.816 92.8346 105.975C92.718 107.239 91.8189 107.262 90.8678 107.259C87.3753 107.248 83.8829 107.259 80.3904 107.259C79.5404 107.259 78.5949 107.364 78.5528 106.104C78.5191 105.053 78.2718 103.856 79.8635 103.672C81.489 103.476 81.9708 102.43 81.9455 100.945C81.9118 98.3563 81.8921 95.7657 81.9455 93.1764C81.9764 91.5566 81.4721 90.4453 79.7259 90.1573C78.4334 89.9438 78.4193 88.9534 78.4854 87.9531C78.557 86.8671 79.244 86.565 80.219 86.5721C82.6972 86.5889 85.1767 86.603 87.6549 86.5721C88.9656 86.5524 89.4629 87.1495 89.4348 88.4237C89.3716 90.5493 89.4068 92.689 89.4068 94.8314Z" fill="#FDFCFC"/>
<path d="M81.5789 79.9677C81.6533 77.5639 83.4052 75.9553 85.8707 76.0424C88.134 76.1225 89.831 77.9489 89.765 80.2346C89.7018 82.4108 87.756 84.2596 85.5883 84.202C83.1762 84.1374 81.5044 82.3743 81.5789 79.9677Z" fill="#FCFBFA"/>
<path d="M103.28 62.2521C102.043 63.7483 101.083 64.7808 100.289 65.9174C99.7268 66.7238 99.2703 66.5384 98.6353 66.1113C97.8359 65.5732 97.5901 64.9761 98.2588 64.1767C99.0146 63.2734 99.7549 62.3588 100.532 61.4751C100.804 61.1647 101.08 60.694 101.636 61.1014C102.192 61.5089 102.718 61.8671 103.28 62.2521Z" fill="#9BBBDB"/>
<path d="M65.5213 50.0154C66.5848 49.9986 66.5946 50.6715 66.7688 51.2686C66.943 51.8657 67.0231 52.252 66.2378 52.533C64.9651 52.9862 63.7246 53.5251 62.5247 54.1458C61.7085 54.5589 61.3629 54.1149 61.0777 53.5333C60.8277 53.0205 60.2348 52.4094 61.037 51.9205C62.4882 51.0382 64.0996 50.5184 65.5213 50.0154Z" fill="#9BBDDB"/>
<path d="M73.2564 50.6856C74.8678 51.596 76.5003 52.3799 77.9571 53.4111C78.5584 53.8326 77.7422 54.4844 77.4921 55.0014C77.287 55.4229 77.0426 55.7545 76.4638 55.4299C75.1418 54.6881 73.7945 53.9885 72.4599 53.272C72.0286 53.0416 71.6928 52.7859 72.0483 52.2296C72.391 51.7013 72.488 50.9596 73.2564 50.6856Z" fill="#9BBDDB"/>
<path d="M57.8424 86.8881L57.5881 86.5425C57.8508 86.5271 57.841 86.7125 57.8424 86.8881Z" fill="#1E3B6B"/>
</g>
<defs>
<clipPath id="clip0_852_2">
<rect width="140" height="140" fill="white"/>
</clipPath>
</defs>
</svg>
